<svg width="350" height="153" viewBox="0 0 350 153" fill="none" xmlns="http://www.w3.org/2000/svg">
<path opacity="0.5" d="M202 28H261.428V85.0055C261.428 102.557 256.95 117.057 247.994 128.504C239.19 139.951 226.287 148.116 209.286 153L202.228 131.48C207.996 129.496 212.777 127.435 216.572 125.299C220.367 123.009 223.403 120.491 225.68 117.744C227.957 114.844 229.551 111.562 230.462 107.899C231.372 104.236 231.828 99.9628 231.828 95.0788H202V28ZM290.572 28H350V85.0055C350 102.557 345.522 117.057 336.566 128.504C327.762 139.951 314.859 148.116 297.858 153L290.8 131.48C296.568 129.496 301.35 127.435 305.145 125.299C308.939 123.009 311.975 120.491 314.252 117.744C316.529 114.844 318.123 111.562 319.034 107.899C319.945 104.236 320.4 99.9628 320.4 95.0788H290.572V28Z" fill="#CACCCF"/>
</svg>
