<svg width="213" height="32" viewBox="0 0 213 32" fill="none" xmlns="http://www.w3.org/2000/svg">
<path d="M18.9516 8.5V26H15.6266L6.90156 15.375V26H2.90156V8.5H6.25156L14.9516 19.125V8.5H18.9516ZM36.842 22.75V26H23.292V8.5H36.517V11.75H27.317V15.55H35.442V18.7H27.317V22.75H36.842ZM66.4703 8.5L60.7453 26H56.3953L52.5453 14.15L48.5703 26H44.2453L38.4953 8.5H42.6953L46.6453 20.8L50.7703 8.5H54.5203L58.5203 20.9L62.5953 8.5H66.4703ZM74.6812 26.3C73.2979 26.3 71.9562 26.1167 70.6562 25.75C69.3729 25.3667 68.3396 24.875 67.5562 24.275L68.9312 21.225C69.6812 21.775 70.5729 22.2167 71.6062 22.55C72.6396 22.8833 73.6729 23.05 74.7062 23.05C75.8562 23.05 76.7062 22.8833 77.2562 22.55C77.8062 22.2 78.0812 21.7417 78.0812 21.175C78.0812 20.7583 77.9146 20.4167 77.5812 20.15C77.2646 19.8667 76.8479 19.6417 76.3312 19.475C75.8312 19.3083 75.1479 19.125 74.2812 18.925C72.9479 18.6083 71.8562 18.2917 71.0062 17.975C70.1562 17.6583 69.4229 17.15 68.8062 16.45C68.2062 15.75 67.9062 14.8167 67.9062 13.65C67.9062 12.6333 68.1812 11.7167 68.7312 10.9C69.2812 10.0667 70.1062 9.40833 71.2062 8.925C72.3229 8.44167 73.6812 8.2 75.2812 8.2C76.3979 8.2 77.4896 8.33333 78.5562 8.6C79.6229 8.86667 80.5562 9.25 81.3562 9.75L80.1062 12.825C78.4896 11.9083 76.8729 11.45 75.2562 11.45C74.1229 11.45 73.2812 11.6333 72.7312 12C72.1979 12.3667 71.9312 12.85 71.9312 13.45C71.9312 14.05 72.2396 14.5 72.8562 14.8C73.4896 15.0833 74.4479 15.3667 75.7312 15.65C77.0646 15.9667 78.1562 16.2833 79.0062 16.6C79.8562 16.9167 80.5812 17.4167 81.1812 18.1C81.7979 18.7833 82.1062 19.7083 82.1062 20.875C82.1062 21.875 81.8229 22.7917 81.2562 23.625C80.7062 24.4417 79.8729 25.0917 78.7562 25.575C77.6396 26.0583 76.2812 26.3 74.6812 26.3ZM85.0736 8.5H89.1236V22.7H97.8986V26H85.0736V8.5ZM113.912 22.75V26H100.362V8.5H113.587V11.75H104.387V15.55H112.512V18.7H104.387V22.75H113.912ZM120.959 11.8H115.359V8.5H130.609V11.8H125.009V26H120.959V11.8ZM136.857 11.8H131.257V8.5H146.507V11.8H140.907V26H136.857V11.8ZM162.436 22.75V26H148.886V8.5H162.111V11.75H152.911V15.55H161.036V18.7H152.911V22.75H162.436ZM177.009 26L173.634 21.125H173.434H169.909V26H165.859V8.5H173.434C174.984 8.5 176.325 8.75833 177.459 9.275C178.609 9.79167 179.492 10.525 180.109 11.475C180.725 12.425 181.034 13.55 181.034 14.85C181.034 16.15 180.717 17.275 180.084 18.225C179.467 19.1583 178.584 19.875 177.434 20.375L181.359 26H177.009ZM176.934 14.85C176.934 13.8667 176.617 13.1167 175.984 12.6C175.35 12.0667 174.425 11.8 173.209 11.8H169.909V17.9H173.209C174.425 17.9 175.35 17.6333 175.984 17.1C176.617 16.5667 176.934 15.8167 176.934 14.85Z" fill="#FAF9F7"/>
<path d="M191.14 11.9H186.59L185.722 14H183.398L187.766 4.2H190.006L194.388 14H192.008L191.14 11.9ZM190.426 10.178L188.872 6.426L187.318 10.178H190.426ZM199.188 5.95C200.299 5.95 201.181 6.216 201.834 6.748C202.488 7.27067 202.814 7.994 202.814 8.918C202.814 9.83267 202.488 10.556 201.834 11.088C201.181 11.6107 200.299 11.872 199.188 11.872H197.732V14H195.52V5.95H199.188ZM199.034 10.164C199.548 10.164 199.935 10.0567 200.196 9.842C200.458 9.62733 200.588 9.31933 200.588 8.918C200.588 8.51667 200.458 8.20867 200.196 7.994C199.935 7.77933 199.548 7.672 199.034 7.672H197.732V10.164H199.034ZM208.302 5.95C209.413 5.95 210.295 6.216 210.948 6.748C211.602 7.27067 211.928 7.994 211.928 8.918C211.928 9.83267 211.602 10.556 210.948 11.088C210.295 11.6107 209.413 11.872 208.302 11.872H206.846V14H204.634V5.95H208.302ZM208.148 10.164C208.662 10.164 209.049 10.0567 209.31 9.842C209.572 9.62733 209.702 9.31933 209.702 8.918C209.702 8.51667 209.572 8.20867 209.31 7.994C209.049 7.77933 208.662 7.672 208.148 7.672H206.846V10.164H208.148Z" fill="#F4F3F1"/>
</svg>
